<?xml version="1.0" standalone="no"?>
<!DOCTYPE svg PUBLIC "-//W3C//DTD SVG 20010904//EN"
 "http://www.w3.org/TR/2001/REC-SVG-20010904/DTD/svg10.dtd">
<svg version="1.0" xmlns="http://www.w3.org/2000/svg"
 width="32.000000pt" height="32.000000pt" viewBox="0 0 32.000000 32.000000"
 preserveAspectRatio="xMidYMid meet">

<g transform="translate(0.000000,32.000000) scale(0.100000,-0.100000)"
fill="#000000" stroke="none">
<path d="M103 290 c-60 -27 -85 -71 -80 -138 4 -56 27 -91 79 -118 54 -28 118
-13 167 40 34 37 40 118 11 164 -19 31 -87 72 -120 72 -8 0 -34 -9 -57 -20z
m131 -86 c11 -28 6 -81 -8 -93 -9 -7 -40 -11 -78 -9 l-63 3 -3 58 -3 57 74 0
c59 0 76 -3 81 -16z"/>
<path d="M130 190 c31 -24 33 -24 55 0 18 20 17 20 -31 20 l-49 0 25 -20z"/>
<path d="M90 155 l0 -35 65 0 65 0 0 36 c0 37 -6 38 -43 6 -16 -14 -20 -13
-47 6 -16 12 -32 22 -35 22 -3 0 -5 -16 -5 -35z"/>
</g>
</svg>
